<?xml version="1.0" encoding="UTF-8" standalone="no"?>
<svg
   xmlns:dc="http://purl.org/dc/elements/1.1/"
   xmlns:cc="http://creativecommons.org/ns#"
   xmlns:rdf="http://www.w3.org/1999/02/22-rdf-syntax-ns#"
   xmlns:svg="http://www.w3.org/2000/svg"
   xmlns="http://www.w3.org/2000/svg"
   xmlns:xlink="http://www.w3.org/1999/xlink"
   xmlns:sodipodi="http://sodipodi.sourceforge.net/DTD/sodipodi-0.dtd"
   xmlns:inkscape="http://www.inkscape.org/namespaces/inkscape"
   width="180.952"
   height="225.626"
   viewBox="0 0 47.877 59.697"
   version="1.1"
   id="svg528"
   sodipodi:docname="Seal of Wonogiri Regency (1).svg"
   inkscape:version="1.0.1 (3bc2e813f5, 2020-09-07)">
  <metadata
     id="metadata532">
    <rdf:RDF>
      <cc:Work
         rdf:about="">
        <dc:format>image/svg+xml</dc:format>
        <dc:type
           rdf:resource="http://purl.org/dc/dcmitype/StillImage" />
      </cc:Work>
    </rdf:RDF>
  </metadata>
  <sodipodi:namedview
     pagecolor="#ffffff"
     bordercolor="#666666"
     borderopacity="1"
     objecttolerance="10"
     gridtolerance="10"
     guidetolerance="10"
     inkscape:pageopacity="0"
     inkscape:pageshadow="2"
     inkscape:window-width="1366"
     inkscape:window-height="705"
     id="namedview530"
     showgrid="false"
     inkscape:zoom="1.4100859"
     inkscape:cx="100.50128"
     inkscape:cy="99.911522"
     inkscape:window-x="-8"
     inkscape:window-y="-8"
     inkscape:window-maximized="1"
     inkscape:current-layer="svg528" />
  <style
     id="style2"><![CDATA[.B{stroke-linejoin:round}.C{fill:#ffeba3}.D{fill:#f5c742}.E{stroke:#a07843}.F{fill:#fff}.G{stroke-width:.132}.H{stroke:#d3d3d3}.I{fill:#186d1a}.J{stroke:#114f13}.K{stroke-width:.113}.L{stroke-width:.103}.M{opacity:.998}.N{stroke-width:.165}.O{stroke:#a5a5a5}.P{stroke-width:.15}.Q{stroke:#8b0000}.R{fill-rule:evenodd}.S{stroke-width:.265}.T{stroke-width:.108}.U{stroke-width:.161}]]></style>
  <defs
     id="defs68">
    <linearGradient
       id="A"
       gradientUnits="userSpaceOnUse">
      <stop
         offset="0"
         stop-color="#dcdcdc"
         id="stop4" />
      <stop
         offset=".56"
         stop-color="#fff"
         id="stop6" />
      <stop
         offset="1"
         stop-color="#d3d3d3"
         id="stop8" />
    </linearGradient>
    <linearGradient
       id="B"
       gradientUnits="userSpaceOnUse">
      <stop
         offset="0"
         stop-color="#8b0000"
         id="stop11" />
      <stop
         offset=".41"
         stop-color="red"
         id="stop13" />
      <stop
         offset="1"
         stop-color="#8b0000"
         id="stop15" />
    </linearGradient>
    <linearGradient
       id="C"
       x1="102.477"
       y1="218.645"
       x2="125.822"
       y2="218.645"
       gradientUnits="userSpaceOnUse">
      <stop
         offset="0"
         stop-color="red"
         id="stop18" />
      <stop
         offset=".144"
         stop-color="#e10000"
         id="stop20" />
      <stop
         offset=".194"
         stop-color="#b10000"
         id="stop22" />
      <stop
         offset=".31"
         stop-color="#d30000"
         id="stop24" />
      <stop
         offset=".5"
         stop-color="red"
         id="stop26" />
      <stop
         offset=".688"
         stop-color="#ea0000"
         id="stop28" />
      <stop
         offset=".775"
         stop-color="#b10000"
         id="stop30" />
      <stop
         offset=".845"
         stop-color="#e10000"
         id="stop32" />
      <stop
         offset="1"
         stop-color="red"
         id="stop34" />
    </linearGradient>
    <linearGradient
       id="D"
       x1="101.067"
       y1="220.428"
       x2="127.233"
       y2="220.428"
       gradientUnits="userSpaceOnUse">
      <stop
         offset="0"
         stop-color="#fff"
         id="stop37" />
      <stop
         offset=".219"
         stop-color="#dadada"
         id="stop39" />
      <stop
         offset=".291"
         stop-color="#fafafa"
         id="stop41" />
      <stop
         offset=".5"
         stop-color="#fff"
         id="stop43" />
      <stop
         offset=".687"
         stop-color="#fafafa"
         id="stop45" />
      <stop
         offset=".759"
         stop-color="#efefef"
         id="stop47" />
      <stop
         offset="1"
         stop-color="#fff"
         id="stop49" />
    </linearGradient>
    <linearGradient
       xlink:href="#B"
       id="E"
       x1="95.611"
       y1="216.736"
       x2="103.438"
       y2="224.737" />
    <linearGradient
       xlink:href="#A"
       id="F"
       x1="102.808"
       y1="224.397"
       x2="95.833"
       y2="216.35" />
    <linearGradient
       xlink:href="#A"
       id="G"
       x1="97.349"
       y1="214.721"
       x2="99.691"
       y2="216.308" />
    <linearGradient
       xlink:href="#B"
       id="H"
       x1="97.349"
       y1="214.721"
       x2="99.691"
       y2="216.308" />
    <linearGradient
       xlink:href="#A"
       id="I"
       x1="125.492"
       y1="224.397"
       x2="132.466"
       y2="216.35" />
    <linearGradient
       xlink:href="#B"
       id="J"
       x1="132.688"
       y1="216.736"
       x2="124.861"
       y2="224.737" />
    <linearGradient
       xlink:href="#A"
       id="K"
       x1="130.951"
       y1="214.721"
       x2="128.608"
       y2="216.308" />
    <linearGradient
       xlink:href="#B"
       id="L"
       x1="130.951"
       y1="214.721"
       x2="128.608"
       y2="216.308" />
    <path
       id="M"
       d="M166.421 208.885c-.297-.498-.102-.969.508-1.016.143-.5.65-.361.832-.298l.219 1.454-.981.526c-.227.08-.529.009-.578-.666z" />
    <path
       id="N"
       d="M166.667 209.744c.631.188 1.319-.227 1.998-.543-.155-1.234-.671-1.448-1.086-1.945-.05.358-.201.671-.088 1.104-.174.03-.214-.092-.596.175a.67.67 0 0 0 .386.543c-.28.061-.465.325-.613.666z" />
    <path
       id="O"
       d="M166.867 190.349c.383.107.509.435.229.748.166.317-.152.488-.272.543l-.798-.622.238-.727c.075-.147.258-.255.602.058z" />
    <path
       id="P"
       d="M166.339 190.037c-.403.205-.547.738-.734 1.218.661.542 1.019.405 1.46.455-.145-.203-.218-.43-.479-.592.072-.097.15-.056.213-.37a.46.46 0 0 0-.449-.088c.11-.163.077-.383-.011-.623z" />
    <path
       id="Q"
       d="M173.937 207.522c-.826.602-.675 1.105-.737 1.629.356-.433.777-.8.737-1.629zm-.572 1.677l-.197.008c.406.659.972.922 1.691.805-.459-.296-.567-.818-1.494-.813z" />
    <path
       id="R"
       d="M173.653 209.369c.388.014.513.217.692.381-.294-.087-.563-.189-.692-.381z" />
    <path
       id="S"
       d="M173.404 208.519c.007-.388.207-.517.368-.699-.081.296-.179.567-.368.699z" />
    <path
       id="T"
       d="M110.994 198.322c.442-.076.402.136.724.178.316.042.541-.215.922-.207s.46.139.721.14.421-.154.728-.161.512.244.821.248.427-.205.815-.214.466.196.83.192.197-.28.796-.177" />
  </defs>
  <g
     id="g1619">
    <path
       d="m 1.508,1.506 v 36.293 c 0,1.453 0.793,3.328 2.271,5.322 1.478,1.994 3.595,4.088 5.984,6.063 4.606,3.806 10.183,7.106 14.176,8.826 3.993,-1.72 9.57,-5.02 14.176,-8.826 2.389,-1.974 4.504,-4.069 5.982,-6.062 1.478,-1.993 2.271,-3.869 2.271,-5.322 V 1.507 h -22.43 z"
       fill="#fff000"
       id="path70" />
    <path
       d="M 0.176,0.175 V 37.8 c 0,7.609 15.382,18.251 23.763,21.707 C 32.32,56.051 47.702,45.409 47.702,37.8 V 0.175 H 23.939 Z M 1.508,1.506 H 23.94 46.37 v 36.293 c 0,1.453 -0.793,3.328 -2.271,5.322 -1.478,1.994 -3.594,4.088 -5.983,6.063 C 33.51,52.99 27.933,56.291 23.94,58.01 19.947,56.29 14.371,52.99 9.765,49.184 7.376,47.21 5.259,45.115 3.78,43.121 2.301,41.127 1.508,39.252 1.508,37.799 Z"
       fill="#d0d0d0"
       stroke="#7b7b7b"
       stroke-width="0.351"
       id="path72" />
    <path
       d="M 0.591,0.59 V 37.8 c 0,1.762 0.91,3.787 2.453,5.868 1.543,2.081 3.706,4.215 6.135,6.222 4.801,3.967 10.633,7.431 14.76,9.158 4.127,-1.726 9.959,-5.19 14.76,-9.158 2.429,-2.007 4.592,-4.141 6.135,-6.222 1.543,-2.081 2.453,-4.106 2.453,-5.868 V 0.59 H 23.939 Z M 1.497,1.091 H 23.94 46.37 c 0.229,0 0.415,0.186 0.415,0.415 v 36.293 c 0,1.604 -0.843,3.532 -2.353,5.569 -1.51,2.037 -3.644,4.146 -6.051,6.136 -4.642,3.836 -10.235,7.147 -14.276,8.888 -0.105,0.045 -0.224,0.045 -0.329,0 C 19.735,56.651 14.143,53.34 9.5,49.504 7.093,47.515 4.955,45.403 3.447,43.368 1.939,41.333 1.094,39.403 1.094,37.799 V 1.506 c 0,-0.225 0.179,-0.409 0.404,-0.415 z"
       class="F"
       id="path74" />
  </g>
  <g
     id="g1614">
    <path
       d="M 13.386,36.014 6.864,15.941 23.939,3.535 v 32.479 z"
       fill="#ff0000"
       id="path76" />
    <path
       d="M 34.492,36.014 41.014,15.941 23.939,3.535 v 32.479 z"
       class="F"
       id="path78" />
    <path
       d="M 23.939,3.535 6.864,15.941 13.386,36.014 h 21.106 l 6.522,-20.073 z"
       fill="none"
       stroke="#000000"
       class="S"
       id="path112" />
  </g>
  <circle
     cx="23.939001"
     cy="21.488995"
     r="9.8219995"
     fill="#3caf41"
     class="M R"
     id="circle80" />
  <g
     id="g1636">
    <path
       d="m 21.292,7.422 1.583,1.199 -0.001,0.003"
       class="C"
       id="path82" />
    <path
       d="m 23.935,5.442 -0.671,1.974 -10e-4,0.003 -1.981,-0.004 0.01,0.008 1.582,1.201 -0.578,1.997 0.012,-0.008 1.626,-1.201 0.003,-0.002 1.643,1.139 -10e-4,-0.004 -0.605,-1.942 h 0.001 L 26.591,7.418 26.594,7.416 24.619,7.42 H 24.614 L 23.936,5.433 Z"
       class="F"
       id="path84" />
    <path
       fill="#a07843"
       d="m 22.296,10.741 c -0.024,0 -0.048,-0.007 -0.068,-0.022 -0.041,-0.03 -0.059,-0.083 -0.045,-0.133 L 22.737,8.67 21.211,7.512 C 21.17,7.481 21.153,7.427 21.169,7.377 21.185,7.327 21.23,7.294 21.28,7.294 v 0 l 1.898,0.004 0.648,-1.906 c 0.016,-0.048 0.061,-0.081 0.111,-0.081 v 0 c 0.05,0 0.094,0.032 0.111,0.081 l 0.65,1.906 1.896,-0.004 v 0 c 0.051,0 0.096,0.034 0.112,0.084 0.016,0.05 -0.002,0.104 -0.043,0.135 l -1.55,1.136 0.575,1.846 c 0.007,0.016 0.012,0.034 0.012,0.052 0,0.067 -0.053,0.121 -0.117,0.121 -0.011,0 -0.021,-0.002 -0.031,-0.004 -0.01,-0.002 -0.025,-0.009 -0.036,-0.016 l -1.575,-1.092 -1.575,1.163 c -0.02,0.015 -0.044,0.022 -0.068,0.022 z m -0.657,-3.205 1.305,0.991 c 0.04,0.03 0.057,0.083 0.043,0.131 l -0.48,1.659 1.36,-1.004 a 0.12,0.12 0 0 1 0.137,-0.004 l 1.362,0.944 -0.502,-1.614 C 24.849,8.59 24.866,8.535 24.907,8.505 L 26.228,7.536 24.62,7.54 v 0 c -0.05,0 -0.099,-0.032 -0.115,-0.081 L 23.938,5.798 23.375,7.456 C 23.359,7.504 23.313,7.54 23.263,7.54 v 0 L 21.64,7.536 Z"
       id="path86" />
    <path
       d="M 24.621,7.419 H 24.616 L 23.938,5.432 23.935,5.441 v 2.827 z"
       class="D"
       id="path88" />
    <g
       class="C"
       id="g94"
       transform="translate(-90.211,-177.939)">
      <path
         d="m 114.146,186.21 v -0.002 l -2.643,-0.846 1.583,1.199 -0.001,0.003 z"
         id="path90" />
      <path
         d="m 113.475,185.355 0.669,0.852 h 0.002 v -2.827 z"
         id="path92" />
    </g>
    <path
       d="M 23.933,8.268 23.264,7.416 23.263,7.419 21.282,7.415 21.292,7.423 Z"
       class="D"
       id="path96" />
    <path
       d="M 23.937,8.267 26.593,7.418 26.596,7.416 24.621,7.42 Z"
       class="C"
       id="path98" />
    <path
       d="m 26.593,7.417 -2.656,0.849 -0.002,0.002 v 0 l 1.041,0.333 z"
       class="D"
       id="path100" />
    <path
       d="M 25.58,10.544 24.975,8.602 h 10e-4 L 23.935,8.269 v 0.002 z"
       class="C"
       id="path102" />
    <g
       class="D"
       id="g108"
       transform="translate(-90.211,-177.939)">
      <path
         d="m 115.791,188.483 -1.645,-2.273 v 1.14 l 0.003,-0.002 1.643,1.139 z"
         id="path104" />
      <path
         d="m 112.52,188.551 1.621,-2.339 -1.055,0.351 -0.578,1.997 z"
         id="path106" />
    </g>
    <path
       d="M 23.935,8.271 23.93,8.273 22.309,10.612 23.935,9.411 Z"
       class="C"
       id="path110" />
  </g>
  <g
     transform="matrix(0.945027,0,0,1.000179,-137.22961,-177.97479)"
     id="g212">
    <g
       transform="matrix(-0.582189,0.363268,-0.362482,-0.58461,342.13273,251.281)"
       id="g118">
      <use
         xlink:href="#M"
         class="F H N"
         id="use114"
         x="0"
         y="0"
         width="100%"
         height="100%" />
      <use
         xlink:href="#N"
         class="I J P"
         id="use116"
         x="0"
         y="0"
         width="100%"
         height="100%" />
    </g>
    <g
       transform="matrix(-0.554168,0.404728,-0.40412,-0.556641,344.85078,238.87574)"
       id="g124">
      <use
         xlink:href="#M"
         class="F H N"
         id="use120"
         x="0"
         y="0"
         width="100%"
         height="100%" />
      <use
         xlink:href="#N"
         class="I J P"
         id="use122"
         x="0"
         y="0"
         width="100%"
         height="100%" />
    </g>
    <use
       xlink:href="#O"
       class="F H K"
       id="use126"
       x="0"
       y="0"
       width="100%"
       height="100%" />
    <use
       xlink:href="#P"
       class="I J L"
       id="use128"
       x="0"
       y="0"
       width="100%"
       height="100%" />
    <g
       transform="matrix(1.040766,-0.141901,0.132192,1.117205,-32.99618,1.978448)"
       id="g134">
      <use
         xlink:href="#O"
         x="-0.186"
         y="-0.186"
         class="F H K"
         id="use130"
         width="100%"
         height="100%" />
      <use
         xlink:href="#P"
         x="-0.186"
         y="-0.186"
         class="I J L"
         id="use132"
         width="100%"
         height="100%" />
    </g>
    <g
       transform="matrix(1.010187,-0.28784,0.289052,1.08723,-59.073687,32.66376)"
       id="g140">
      <use
         xlink:href="#O"
         x="-0.186"
         y="-0.186"
         class="F H K"
         id="use136"
         width="100%"
         height="100%" />
      <use
         xlink:href="#P"
         x="-0.186"
         y="-0.186"
         class="I J L"
         id="use138"
         width="100%"
         height="100%" />
    </g>
    <g
       transform="matrix(0.984412,-0.51166,0.501598,1.119845,-96.420624,64.70502)"
       id="g146">
      <use
         xlink:href="#O"
         x="-0.186"
         y="-0.186"
         class="F H K"
         id="use142"
         width="100%"
         height="100%" />
      <use
         xlink:href="#P"
         x="-0.186"
         y="-0.186"
         class="I J L"
         id="use144"
         width="100%"
         height="100%" />
    </g>
    <g
       transform="matrix(0.868253,-0.690651,0.706703,1.003108,-117.25672,117.99009)"
       id="g152">
      <use
         xlink:href="#O"
         x="-0.186"
         y="-0.186"
         class="F H K"
         id="use148"
         width="100%"
         height="100%" />
      <use
         xlink:href="#P"
         x="-0.186"
         y="-0.186"
         class="I J L"
         id="use150"
         width="100%"
         height="100%" />
    </g>
    <g
       transform="matrix(0.785485,-0.729186,0.819437,0.849541,-125.83912,154.91966)"
       id="g158">
      <use
         xlink:href="#O"
         x="-0.186"
         y="-0.186"
         class="F H K"
         id="use154"
         width="100%"
         height="100%" />
      <use
         xlink:href="#P"
         x="-0.186"
         y="-0.186"
         class="I J L"
         id="use156"
         width="100%"
         height="100%" />
    </g>
    <g
       transform="matrix(0.707093,-0.873321,1.010664,0.733473,-149.84238,202.57448)"
       id="g164">
      <use
         xlink:href="#O"
         x="-0.186"
         y="-0.186"
         class="F H K"
         id="use160"
         width="100%"
         height="100%" />
      <use
         xlink:href="#P"
         x="-0.186"
         y="-0.186"
         class="I J L"
         id="use162"
         width="100%"
         height="100%" />
    </g>
    <g
       transform="matrix(0.559227,-1.05111,1.153096,0.584538,-152.6941,262.05695)"
       id="g170">
      <use
         xlink:href="#O"
         x="-0.186"
         y="-0.186"
         class="F H K"
         id="use166"
         width="100%"
         height="100%" />
      <use
         xlink:href="#P"
         x="-0.186"
         y="-0.186"
         class="I J L"
         id="use168"
         width="100%"
         height="100%" />
    </g>
    <g
       transform="matrix(0.392016,-1.166618,1.315627,0.387274,-155.86033,320.60665)"
       id="g176">
      <use
         xlink:href="#O"
         x="-0.186"
         y="-0.186"
         class="F H K"
         id="use172"
         width="100%"
         height="100%" />
      <use
         xlink:href="#P"
         x="-0.186"
         y="-0.186"
         class="I J L"
         id="use174"
         width="100%"
         height="100%" />
    </g>
    <g
       transform="matrix(0.133659,-1.223441,1.367995,0.097184,-122.57037,387.08213)"
       id="g182">
      <use
         xlink:href="#O"
         x="-0.186"
         y="-0.186"
         class="F H K"
         id="use178"
         width="100%"
         height="100%" />
      <use
         xlink:href="#P"
         x="-0.186"
         y="-0.186"
         class="I J L"
         id="use180"
         width="100%"
         height="100%" />
    </g>
    <g
       transform="matrix(-0.056381,-1.229428,1.366639,-0.114686,-89.862597,430.22208)"
       id="g188">
      <use
         xlink:href="#O"
         x="-0.186"
         y="-0.186"
         class="F H K"
         id="use184"
         width="100%"
         height="100%" />
      <use
         xlink:href="#P"
         x="-0.186"
         y="-0.186"
         class="I J L"
         id="use186"
         width="100%"
         height="100%" />
    </g>
    <g
       transform="matrix(-0.329031,-1.185922,1.306683,-0.416457,-32.049858,482.07404)"
       id="g194">
      <use
         xlink:href="#O"
         x="-0.186"
         y="-0.186"
         class="F H K"
         id="use190"
         width="100%"
         height="100%" />
      <use
         xlink:href="#P"
         x="-0.186"
         y="-0.186"
         class="I J L"
         id="use192"
         width="100%"
         height="100%" />
    </g>
    <g
       transform="matrix(-0.494139,-1.242827,1.279015,-0.638297,1.959269,535.26016)"
       id="g200">
      <use
         xlink:href="#O"
         x="-0.186"
         y="-0.186"
         class="F H K"
         id="use196"
         width="100%"
         height="100%" />
      <use
         xlink:href="#P"
         x="-0.186"
         y="-0.186"
         class="I J L"
         id="use198"
         width="100%"
         height="100%" />
    </g>
    <g
       transform="rotate(15.385,169.267,200.964)"
       id="g206">
      <use
         xlink:href="#M"
         class="F H N"
         id="use202"
         x="0"
         y="0"
         width="100%"
         height="100%" />
      <use
         xlink:href="#N"
         class="I J P"
         id="use204"
         x="0"
         y="0"
         width="100%"
         height="100%" />
    </g>
    <use
       xlink:href="#M"
       class="F H N"
       id="use208"
       x="0"
       y="0"
       width="100%"
       height="100%" />
    <use
       xlink:href="#N"
       class="I J P"
       id="use210"
       x="0"
       y="0"
       width="100%"
       height="100%" />
  </g>
  <g
     transform="matrix(1.038224,0,0,1.023231,-154.49387,-182.82052)"
     id="g438">
    <use
       xlink:href="#Q"
       class="B D E G"
       id="use216"
       x="0"
       y="0"
       width="100%"
       height="100%" />
    <g
       class="C"
       id="g222">
      <use
         xlink:href="#R"
         id="use218"
         x="0"
         y="0"
         width="100%"
         height="100%" />
      <use
         xlink:href="#S"
         id="use220"
         x="0"
         y="0"
         width="100%"
         height="100%" />
    </g>
    <g
       transform="rotate(-9.409,171.491,200.373)"
       id="g232">
      <use
         xlink:href="#Q"
         class="B D E G"
         id="use224"
         x="0"
         y="0"
         width="100%"
         height="100%" />
      <g
         class="C"
         id="g230">
        <use
           xlink:href="#R"
           id="use226"
           x="0"
           y="0"
           width="100%"
           height="100%" />
        <use
           xlink:href="#S"
           id="use228"
           x="0"
           y="0"
           width="100%"
           height="100%" />
      </g>
    </g>
    <g
       transform="rotate(-13.452,170.704,198.019)"
       id="g242">
      <use
         xlink:href="#Q"
         class="B D E G"
         id="use234"
         x="0"
         y="0"
         width="100%"
         height="100%" />
      <g
         class="C"
         id="g240">
        <use
           xlink:href="#R"
           id="use236"
           x="0"
           y="0"
           width="100%"
           height="100%" />
        <use
           xlink:href="#S"
           id="use238"
           x="0"
           y="0"
           width="100%"
           height="100%" />
      </g>
    </g>
    <g
       transform="rotate(-15.265,169.641,195.431)"
       id="g252">
      <use
         xlink:href="#Q"
         class="B D E G"
         id="use244"
         x="0"
         y="0"
         width="100%"
         height="100%" />
      <g
         class="C"
         id="g250">
        <use
           xlink:href="#R"
           id="use246"
           x="0"
           y="0"
           width="100%"
           height="100%" />
        <use
           xlink:href="#S"
           id="use248"
           x="0"
           y="0"
           width="100%"
           height="100%" />
      </g>
    </g>
    <g
       transform="rotate(-25.044,170.787,197.955)"
       id="g262">
      <use
         xlink:href="#Q"
         class="B D E G"
         id="use254"
         x="0"
         y="0"
         width="100%"
         height="100%" />
      <g
         class="C"
         id="g260">
        <use
           xlink:href="#R"
           id="use256"
           x="0"
           y="0"
           width="100%"
           height="100%" />
        <use
           xlink:href="#S"
           id="use258"
           x="0"
           y="0"
           width="100%"
           height="100%" />
      </g>
    </g>
    <g
       transform="matrix(0.814553,-0.543556,0.526779,0.840495,-72.678248,124.65502)"
       id="g272">
      <use
         xlink:href="#Q"
         class="B D E G"
         id="use264"
         x="0"
         y="0"
         width="100%"
         height="100%" />
      <g
         class="C"
         id="g270">
        <use
           xlink:href="#R"
           id="use266"
           x="0"
           y="0"
           width="100%"
           height="100%" />
        <use
           xlink:href="#S"
           id="use268"
           x="0"
           y="0"
           width="100%"
           height="100%" />
      </g>
    </g>
    <g
       transform="matrix(0.746488,-0.633505,0.609966,0.775296,-77.471556,152.8601)"
       id="g282">
      <use
         xlink:href="#Q"
         class="B D E G"
         id="use274"
         x="0"
         y="0"
         width="100%"
         height="100%" />
      <g
         class="C"
         id="g280">
        <use
           xlink:href="#R"
           id="use276"
           x="0"
           y="0"
           width="100%"
           height="100%" />
        <use
           xlink:href="#S"
           id="use278"
           x="0"
           y="0"
           width="100%"
           height="100%" />
      </g>
    </g>
    <g
       transform="matrix(0.661499,-0.662635,0.64424,0.68905,-69.268545,175.05574)"
       id="g292">
      <use
         xlink:href="#Q"
         class="B D E G"
         id="use284"
         x="0"
         y="0"
         width="100%"
         height="100%" />
      <g
         class="C"
         id="g290">
        <use
           xlink:href="#R"
           id="use286"
           x="0"
           y="0"
           width="100%"
           height="100%" />
        <use
           xlink:href="#S"
           id="use288"
           x="0"
           y="0"
           width="100%"
           height="100%" />
      </g>
    </g>
    <g
       transform="matrix(0.583141,-0.732539,0.717345,0.612578,-70.427184,202.09038)"
       id="g302">
      <use
         xlink:href="#Q"
         class="B D E G"
         id="use294"
         x="0"
         y="0"
         width="100%"
         height="100%" />
      <g
         class="C"
         id="g300">
        <use
           xlink:href="#R"
           id="use296"
           x="0"
           y="0"
           width="100%"
           height="100%" />
        <use
           xlink:href="#S"
           id="use298"
           x="0"
           y="0"
           width="100%"
           height="100%" />
      </g>
    </g>
    <g
       transform="matrix(0.470209,-0.746859,0.761907,0.483412,-59.741755,230.3257)"
       id="g312">
      <use
         xlink:href="#Q"
         class="B D E G"
         id="use304"
         x="0"
         y="0"
         width="100%"
         height="100%" />
      <g
         class="C"
         id="g310">
        <use
           xlink:href="#R"
           id="use306"
           x="0"
           y="0"
           width="100%"
           height="100%" />
        <use
           xlink:href="#S"
           id="use308"
           x="0"
           y="0"
           width="100%"
           height="100%" />
      </g>
    </g>
    <g
       transform="matrix(0.359713,-0.805917,0.822683,0.370653,-53.084111,262.81914)"
       id="g322">
      <use
         xlink:href="#Q"
         class="B D E G"
         id="use314"
         x="0"
         y="0"
         width="100%"
         height="100%" />
      <g
         class="C"
         id="g320">
        <use
           xlink:href="#R"
           id="use316"
           x="0"
           y="0"
           width="100%"
           height="100%" />
        <use
           xlink:href="#S"
           id="use318"
           x="0"
           y="0"
           width="100%"
           height="100%" />
      </g>
    </g>
    <g
       transform="matrix(0.228535,-0.852448,0.870725,0.236702,-40.320138,297.55585)"
       id="g332">
      <use
         xlink:href="#Q"
         class="B D E G"
         id="use324"
         x="0"
         y="0"
         width="100%"
         height="100%" />
      <g
         class="C"
         id="g330">
        <use
           xlink:href="#R"
           id="use326"
           x="0"
           y="0"
           width="100%"
           height="100%" />
        <use
           xlink:href="#S"
           id="use328"
           x="0"
           y="0"
           width="100%"
           height="100%" />
      </g>
    </g>
    <g
       transform="matrix(0.0706,-0.879722,0.899175,0.075327,-19.109034,334.71439)"
       id="g342">
      <use
         xlink:href="#Q"
         class="B D E G"
         id="use334"
         x="0"
         y="0"
         width="100%"
         height="100%" />
      <g
         class="C"
         id="g340">
        <use
           xlink:href="#R"
           id="use336"
           x="0"
           y="0"
           width="100%"
           height="100%" />
        <use
           xlink:href="#S"
           id="use338"
           x="0"
           y="0"
           width="100%"
           height="100%" />
      </g>
    </g>
    <g
       transform="matrix(-0.034913,-0.88186,0.901738,-0.032542,-1.658636,356.47082)"
       id="g352">
      <use
         xlink:href="#Q"
         class="B D E G"
         id="use344"
         x="0"
         y="0"
         width="100%"
         height="100%" />
      <g
         class="C"
         id="g350">
        <use
           xlink:href="#R"
           id="use346"
           x="0"
           y="0"
           width="100%"
           height="100%" />
        <use
           xlink:href="#S"
           id="use348"
           x="0"
           y="0"
           width="100%"
           height="100%" />
      </g>
    </g>
    <g
       transform="matrix(-0.113265,-0.876331,0.831436,-0.121717,26.085199,372.98716)"
       id="g362">
      <use
         xlink:href="#Q"
         class="B D E G"
         id="use354"
         x="0"
         y="0"
         width="100%"
         height="100%" />
      <g
         class="C"
         id="g360">
        <use
           xlink:href="#R"
           id="use356"
           x="0"
           y="0"
           width="100%"
           height="100%" />
        <use
           xlink:href="#S"
           id="use358"
           x="0"
           y="0"
           width="100%"
           height="100%" />
      </g>
    </g>
    <g
       transform="matrix(-0.207448,-0.858924,0.813378,-0.210991,45.536143,387.52517)"
       id="g372">
      <use
         xlink:href="#Q"
         class="B D E G"
         id="use364"
         x="0"
         y="0"
         width="100%"
         height="100%" />
      <g
         class="C"
         id="g370">
        <use
           xlink:href="#R"
           id="use366"
           x="0"
           y="0"
           width="100%"
           height="100%" />
        <use
           xlink:href="#S"
           id="use368"
           x="0"
           y="0"
           width="100%"
           height="100%" />
      </g>
    </g>
    <g
       transform="matrix(-0.332003,-0.818877,0.773307,-0.328781,74.807565,404.26726)"
       id="g382">
      <use
         xlink:href="#Q"
         class="B D E G"
         id="use374"
         x="0"
         y="0"
         width="100%"
         height="100%" />
      <g
         class="C"
         id="g380">
        <use
           xlink:href="#R"
           id="use376"
           x="0"
           y="0"
           width="100%"
           height="100%" />
        <use
           xlink:href="#S"
           id="use378"
           x="0"
           y="0"
           width="100%"
           height="100%" />
      </g>
    </g>
    <g
       transform="matrix(-0.377455,-0.76321,0.754909,-0.354479,85.534057,399.19083)"
       id="g392">
      <use
         xlink:href="#Q"
         class="B D E G"
         id="use384"
         x="0"
         y="0"
         width="100%"
         height="100%" />
      <g
         class="C"
         id="g390">
        <use
           xlink:href="#R"
           id="use386"
           x="0"
           y="0"
           width="100%"
           height="100%" />
        <use
           xlink:href="#S"
           id="use388"
           x="0"
           y="0"
           width="100%"
           height="100%" />
      </g>
    </g>
    <g
       transform="matrix(-0.462735,-0.70263,0.668924,-0.458671,117.42297,409.69743)"
       id="g402">
      <use
         xlink:href="#Q"
         class="B D E G"
         id="use394"
         x="0"
         y="0"
         width="100%"
         height="100%" />
      <g
         class="C"
         id="g400">
        <use
           xlink:href="#R"
           id="use396"
           x="0"
           y="0"
           width="100%"
           height="100%" />
        <use
           xlink:href="#S"
           id="use398"
           x="0"
           y="0"
           width="100%"
           height="100%" />
      </g>
    </g>
    <g
       transform="matrix(-0.560654,-0.627279,0.594532,-0.551697,148.97243,415.44534)"
       id="g412">
      <use
         xlink:href="#Q"
         class="B D E G"
         id="use404"
         x="0"
         y="0"
         width="100%"
         height="100%" />
      <g
         class="C"
         id="g410">
        <use
           xlink:href="#R"
           id="use406"
           x="0"
           y="0"
           width="100%"
           height="100%" />
        <use
           xlink:href="#S"
           id="use408"
           x="0"
           y="0"
           width="100%"
           height="100%" />
      </g>
    </g>
    <g
       transform="matrix(-0.560573,-0.632605,0.594446,-0.556382,147.92487,416.90501)"
       id="g422">
      <use
         xlink:href="#Q"
         class="B D E G"
         id="use414"
         x="0"
         y="0"
         width="100%"
         height="100%" />
      <g
         class="C"
         id="g420">
        <use
           xlink:href="#R"
           id="use416"
           x="0"
           y="0"
           width="100%"
           height="100%" />
        <use
           xlink:href="#S"
           id="use418"
           x="0"
           y="0"
           width="100%"
           height="100%" />
      </g>
    </g>
    <g
       transform="matrix(-0.677963,-0.504774,0.468276,-0.666066,193.42405,417.23185)"
       id="g432">
      <use
         xlink:href="#Q"
         stroke-width="0.133"
         class="B D E"
         id="use424"
         x="0"
         y="0"
         width="100%"
         height="100%" />
      <g
         class="C"
         id="g430">
        <use
           xlink:href="#R"
           id="use426"
           x="0"
           y="0"
           width="100%"
           height="100%" />
        <use
           xlink:href="#S"
           id="use428"
           x="0"
           y="0"
           width="100%"
           height="100%" />
      </g>
    </g>
    <path
       d="m 171.719,190.088 c 0.838,-0.46 1.124,-0.068 1.456,0.186 -0.333,0.201 -0.993,0.148 -1.456,-0.186 z"
       stroke-width="0.11"
       class="D E"
       id="path434" />
    <path
       d="m 172.149,190.05 c 0.214,-0.087 0.445,-0.071 0.633,0.09 -0.163,0.02 -0.488,-0.003 -0.633,-0.09 z"
       class="C"
       id="path436" />
  </g>
  <g
     id="g1654">
    <g
       class="R"
       id="g446"
       transform="translate(-90.211,-177.939)">
      <path
         d="m 115.107,193.096 c 0.07,0.195 0.206,0.357 0.365,0.429 0.215,0.098 0.421,0.221 0.615,0.364 0.146,0.108 0.359,0.147 0.565,0.109 -0.027,0.208 0.024,0.42 0.14,0.562 0.155,0.189 0.293,0.391 0.41,0.603 0.087,0.158 0.26,0.282 0.459,0.336 a 0.72,0.72 0 0 0 -0.109,0.558 3,3 0 0 1 0.085,0.696 c 0,0.185 0.085,0.367 0.227,0.505 -0.174,0.091 -0.306,0.24 -0.36,0.417 a 3.18,3.18 0 0 1 -0.28,0.648 0.72,0.72 0 0 0 -0.049,0.569 c -0.207,-0.002 -0.408,0.071 -0.535,0.2 -0.171,0.174 -0.358,0.332 -0.558,0.472 -0.149,0.105 -0.253,0.291 -0.284,0.496 a 0.72,0.72 0 0 0 -0.571,-0.042 3.3,3.3 0 0 1 -0.687,0.177 c -0.171,0.024 -0.347,0.14 -0.469,0.308 -0.079,-0.115 -0.182,-0.209 -0.286,-0.265 -0.055,-0.027 -0.114,-0.046 -0.177,-0.055 -0.23,-0.034 -0.455,-0.099 -0.673,-0.188 -0.175,-0.072 -0.382,-0.061 -0.566,0.021 -0.021,-0.205 -0.116,-0.395 -0.256,-0.506 a 3.94,3.94 0 0 1 -0.527,-0.502 c -0.121,-0.139 -0.322,-0.223 -0.532,-0.231 0.071,-0.197 0.066,-0.413 -0.017,-0.576 -0.11,-0.215 -0.199,-0.44 -0.262,-0.668 -0.047,-0.169 -0.187,-0.33 -0.369,-0.429 0.152,-0.141 0.249,-0.33 0.256,-0.502 l 0.02,-0.225 c 0.012,-0.156 0.039,-0.311 0.078,-0.464 0.043,-0.168 0.005,-0.376 -0.101,-0.554 0.203,-0.044 0.382,-0.16 0.475,-0.312 0.125,-0.204 0.273,-0.396 0.437,-0.575 0.124,-0.135 0.187,-0.343 0.171,-0.552 0.204,0.049 0.42,0.022 0.573,-0.079 0.204,-0.134 0.418,-0.249 0.64,-0.34 0.166,-0.069 0.309,-0.228 0.385,-0.421 0.159,0.133 0.36,0.203 0.533,0.185 0.211,-0.022 0.424,-0.02 0.633,0.007 l 0.063,0.006 c 0.171,0.018 0.372,-0.049 0.535,-0.179 z"
         fill="#009b4c"
         stroke="#bc9e00"
         class="B M T"
         id="path440" />
      <path
         d="m 110.762,197.495 c 0.004,0.012 0.012,0.024 0.015,0.037 a 3.5,3.5 0 0 0 0.134,0.384 h 6.507 l 0.088,-0.242 c 0.019,-0.064 0.053,-0.123 0.091,-0.179 z"
         fill="#b3272b"
         class="M"
         id="path442" />
      <path
         d="m 110.91,197.916 0.129,0.284 c 0.083,0.163 0.088,0.379 0.017,0.576 0.21,0.007 0.41,0.092 0.532,0.23 0.161,0.184 0.337,0.352 0.527,0.502 0.141,0.111 0.235,0.301 0.256,0.506 0.184,-0.083 0.391,-0.093 0.566,-0.021 0.218,0.09 0.443,0.154 0.672,0.188 0.062,0.009 0.121,0.028 0.177,0.055 0.104,0.056 0.206,0.15 0.286,0.265 0.122,-0.167 0.298,-0.283 0.469,-0.307 a 3.3,3.3 0 0 0 0.687,-0.177 0.72,0.72 0 0 1 0.572,0.042 c 0.031,-0.205 0.135,-0.392 0.284,-0.497 a 4.03,4.03 0 0 0 0.558,-0.472 c 0.127,-0.129 0.328,-0.201 0.535,-0.199 a 0.72,0.72 0 0 1 0.049,-0.569 c 0.075,-0.131 0.137,-0.267 0.192,-0.406 z"
         fill="#00a2e9"
         class="M"
         id="path444" />
    </g>
    <path
       d="m 20.409,18.858 c 0.414,0.077 0.712,-0.066 1.027,-0.334 0.452,-0.095 0.821,-0.375 1.283,-0.348 0.506,-0.041 0.838,-0.629 1.377,-0.479 0.522,0.269 1.094,0.682 1.716,0.474 0.576,0.155 1.057,0.508 1.614,0.642 l -0.045,-0.504 c -1.947,-0.796 -2.584,-2.115 -3.441,-2.15 -0.961,1.546 -3.031,2.273 -3.468,2.277 z"
       class="F"
       id="path448" />
    <g
       fill="none"
       stroke="#ffffff"
       class="N"
       id="g456"
       transform="translate(-90.211,-177.939)">
      <use
         xlink:href="#T"
         id="use450"
         x="0"
         y="0"
         width="100%"
         height="100%" />
      <use
         xlink:href="#T"
         y="0.56099999"
         id="use452"
         x="0"
         width="100%"
         height="100%" />
      <path
         d="m 112.174,199.549 a 1.13,1.13 0 0 1 0.465,-0.108 c 0.381,0.008 0.46,0.139 0.721,0.14 0.261,0.001 0.421,-0.154 0.728,-0.161 0.307,-0.007 0.512,0.244 0.821,0.248 0.309,0.004 0.427,-0.205 0.815,-0.214 0.218,-0.005 0.338,0.057 0.466,0.112"
         id="path454" />
    </g>
    <path
       d="m 23.978,13.903 -0.461,0.028 a 0.72,0.72 0 0 0 -0.593,0.393 c -0.181,-0.13 -0.435,-0.175 -0.706,-0.066 -0.309,0.124 -0.605,0.279 -0.883,0.46 -0.242,0.158 -0.352,0.391 -0.351,0.614 -0.22,-0.038 -0.468,0.033 -0.662,0.246 a 5.11,5.11 0 0 0 -0.596,0.798 c -0.151,0.25 -0.147,0.509 -0.048,0.708 -0.213,0.065 -0.404,0.239 -0.482,0.525 -0.06,0.221 -0.105,0.448 -0.133,0.68 l -0.018,0.334 h -0.001 c -0.005,0.3 0.131,0.522 0.318,0.644 -0.151,0.164 -0.226,0.412 -0.149,0.695 a 5.04,5.04 0 0 0 0.356,0.932 c 0.129,0.259 0.349,0.393 0.572,0.417 -0.062,0.215 -0.019,0.47 0.172,0.687 0.219,0.25 0.462,0.478 0.725,0.681 0.23,0.178 0.487,0.204 0.697,0.129 a 0.72,0.72 0 0 0 0.459,0.541 c 0.31,0.127 0.636,0.223 0.974,0.284 a 0.85,0.85 0 0 0 0.269,0.005 0.71,0.71 0 0 0 0.425,-0.235 c 0.15,0.172 0.394,0.278 0.67,0.238 a 4.92,4.92 0 0 0 0.971,-0.246 c 0.273,-0.099 0.432,-0.302 0.48,-0.52 0.207,0.085 0.464,0.071 0.701,-0.094 a 5.23,5.23 0 0 0 0.758,-0.644 c 0.202,-0.208 0.257,-0.459 0.206,-0.677 0.223,-0.012 0.449,-0.136 0.591,-0.39 a 4.87,4.87 0 0 0 0.397,-0.922 c 0.084,-0.27 0.016,-0.531 -0.135,-0.706 a 0.74,0.74 0 0 0 0.333,-0.646 c -0.007,-0.34 -0.051,-0.676 -0.128,-1.001 -0.067,-0.284 -0.249,-0.466 -0.46,-0.538 0.108,-0.195 0.122,-0.453 -0.016,-0.708 a 5.21,5.21 0 0 0 -0.556,-0.825 c -0.183,-0.223 -0.428,-0.306 -0.65,-0.28 0.013,-0.223 -0.085,-0.461 -0.32,-0.631 -0.27,-0.195 -0.558,-0.363 -0.864,-0.501 -0.268,-0.121 -0.525,-0.086 -0.711,0.037 -0.092,-0.205 -0.292,-0.373 -0.591,-0.415 l -0.093,-0.012 -0.467,-0.018 z m 10e-4,0.399 0.425,0.018 v 10e-4 l 0.084,0.01 c 0.198,0.026 0.308,0.19 0.272,0.357 -0.036,0.167 -0.185,0.27 -0.348,0.251 L 24.34,14.931 C 24.101,14.904 23.861,14.905 23.623,14.93 a 0.31,0.31 0 0 1 -0.342,-0.256 c -0.031,-0.167 0.082,-0.326 0.277,-0.347 v -10e-4 l 0.42,-0.024 z m -1.478,0.299 c 0.128,10e-4 0.237,0.079 0.276,0.201 a 0.31,0.31 0 0 1 -0.18,0.389 c -0.247,0.101 -0.484,0.226 -0.709,0.374 a 0.31,0.31 0 0 1 -0.425,-0.074 c -0.104,-0.137 -0.072,-0.331 0.091,-0.437 0.257,-0.168 0.53,-0.31 0.814,-0.425 a 0.35,0.35 0 0 1 0.133,-0.027 z m 3.043,0.039 a 0.36,0.36 0 0 1 0.132,0.032 c 0.279,0.127 0.546,0.283 0.794,0.463 0.154,0.111 0.179,0.308 0.068,0.44 a 0.31,0.31 0 0 1 -0.426,0.052 C 25.896,15.47 25.667,15.334 25.426,15.224 A 0.31,0.31 0 0 1 25.262,14.83 c 0.044,-0.12 0.155,-0.195 0.283,-0.19 z m -2.412,0.499 c 0.159,0.133 0.36,0.202 0.533,0.184 0.211,-0.022 0.423,-0.02 0.633,0.007 l 0.063,0.006 c 0.171,0.018 0.372,-0.049 0.535,-0.179 0.07,0.195 0.206,0.356 0.365,0.428 0.215,0.098 0.421,0.221 0.615,0.364 0.146,0.108 0.359,0.147 0.565,0.109 -0.027,0.208 0.024,0.419 0.141,0.562 0.155,0.189 0.293,0.391 0.41,0.603 0.087,0.158 0.261,0.282 0.46,0.336 -0.111,0.169 -0.154,0.373 -0.11,0.558 0.055,0.23 0.085,0.463 0.085,0.696 0,0.185 0.085,0.367 0.227,0.505 -0.174,0.091 -0.307,0.24 -0.36,0.417 -0.068,0.223 -0.162,0.44 -0.28,0.648 a 0.72,0.72 0 0 0 -0.049,0.569 c -0.207,-0.002 -0.408,0.07 -0.535,0.199 a 4.03,4.03 0 0 1 -0.558,0.472 c -0.149,0.105 -0.253,0.292 -0.284,0.497 a 0.72,0.72 0 0 0 -0.572,-0.042 3.3,3.3 0 0 1 -0.687,0.177 c -0.171,0.024 -0.347,0.14 -0.469,0.307 -0.079,-0.115 -0.181,-0.209 -0.286,-0.265 a 0.6,0.6 0 0 0 -0.177,-0.055 c -0.23,-0.034 -0.455,-0.099 -0.672,-0.188 -0.175,-0.072 -0.382,-0.062 -0.566,0.021 -0.021,-0.205 -0.116,-0.396 -0.256,-0.506 a 3.94,3.94 0 0 1 -0.528,-0.502 c -0.121,-0.139 -0.321,-0.223 -0.531,-0.23 0.071,-0.197 0.067,-0.414 -0.017,-0.576 -0.11,-0.215 -0.199,-0.44 -0.263,-0.668 -0.047,-0.169 -0.187,-0.33 -0.369,-0.429 0.152,-0.141 0.249,-0.33 0.256,-0.502 l 0.02,-0.225 a 2.72,2.72 0 0 1 0.079,-0.464 c 0.043,-0.168 0.005,-0.376 -0.102,-0.554 0.203,-0.044 0.382,-0.161 0.475,-0.312 0.125,-0.204 0.272,-0.396 0.437,-0.575 0.124,-0.135 0.187,-0.343 0.172,-0.552 0.204,0.049 0.42,0.021 0.574,-0.08 0.204,-0.134 0.418,-0.248 0.64,-0.34 0.166,-0.069 0.309,-0.228 0.385,-0.421 z m -2.288,0.6 h 10e-4 a 0.29,0.29 0 0 1 0.218,0.091 0.31,0.31 0 0 1 0.004,0.431 4.13,4.13 0 0 0 -0.482,0.638 0.31,0.31 0 0 1 -0.412,0.115 c -0.152,-0.078 -0.208,-0.264 -0.106,-0.431 0.159,-0.262 0.344,-0.508 0.551,-0.734 0.066,-0.072 0.147,-0.108 0.227,-0.111 z m 6.298,0.117 c 0.08,0.007 0.16,0.047 0.222,0.122 a 4.86,4.86 0 0 1 0.514,0.762 c 0.093,0.171 0.03,0.356 -0.126,0.427 a 0.31,0.31 0 0 1 -0.409,-0.135 4.33,4.33 0 0 0 -0.451,-0.666 0.31,0.31 0 0 1 0.027,-0.43 c 0.063,-0.059 0.143,-0.086 0.223,-0.08 z m -7.237,1.622 a 0.33,0.33 0 0 1 0.06,0.015 0.31,0.31 0 0 1 0.201,0.377 c -0.045,0.172 -0.077,0.347 -0.094,0.525 l -0.019,0.257 c -0.005,0.163 -0.129,0.296 -0.3,0.305 -0.171,0.009 -0.313,-0.124 -0.309,-0.322 l 0.018,-0.303 c 0.024,-0.21 0.063,-0.417 0.117,-0.619 0.045,-0.166 0.184,-0.254 0.326,-0.235 z m 8.156,0.164 h 0.001 c 0.119,0.013 0.223,0.102 0.257,0.244 0.071,0.299 0.11,0.604 0.115,0.914 0.003,0.192 -0.141,0.331 -0.313,0.318 A 0.31,0.31 0 0 1 27.826,18.807 C 27.823,18.544 27.79,18.282 27.729,18.025 a 0.31,0.31 0 0 1 0.211,-0.372 0.3,0.3 0 0 1 0.121,-0.012 z m -8.121,1.831 a 0.31,0.31 0 0 1 0.242,0.225 c 0.07,0.255 0.168,0.504 0.289,0.743 a 0.31,0.31 0 0 1 -0.12,0.413 c -0.148,0.088 -0.338,0.031 -0.424,-0.138 a 4.63,4.63 0 0 1 -0.33,-0.857 c -0.051,-0.188 0.054,-0.352 0.221,-0.384 a 0.33,0.33 0 0 1 0.121,-0.001 z m 7.982,0.161 c 0.039,-0.006 0.08,-0.005 0.122,0.004 0.168,0.037 0.266,0.21 0.21,0.392 a 4.39,4.39 0 0 1 -0.364,0.844 c -0.093,0.166 -0.285,0.214 -0.428,0.119 a 0.31,0.31 0 0 1 -0.101,-0.416 c 0.13,-0.231 0.237,-0.474 0.314,-0.726 0.036,-0.117 0.131,-0.199 0.248,-0.218 z m -7.053,1.59 h 0.001 a 0.32,0.32 0 0 1 0.205,0.107 4.29,4.29 0 0 0 0.583,0.553 0.31,0.31 0 0 1 0.067,0.424 c -0.095,0.142 -0.287,0.176 -0.441,0.056 a 4.84,4.84 0 0 1 -0.669,-0.631 c -0.128,-0.147 -0.107,-0.341 0.03,-0.445 0.069,-0.052 0.148,-0.073 0.225,-0.065 z m 6.056,0.111 h 10e-4 0.001 c 0.077,-0.004 0.155,0.02 0.221,0.076 0.131,0.111 0.142,0.307 0.006,0.446 -0.214,0.22 -0.45,0.42 -0.701,0.595 -0.16,0.112 -0.351,0.068 -0.439,-0.079 a 0.31,0.31 0 0 1 0.089,-0.422 c 0.22,-0.154 0.426,-0.329 0.614,-0.521 0.058,-0.059 0.133,-0.092 0.21,-0.096 z m -4.466,1.063 c 0.039,0.001 0.077,0.01 0.115,0.025 0.244,0.1 0.498,0.173 0.759,0.215 a 0.31,0.31 0 0 1 0.195,0.114 c 0.047,0.06 0.075,0.139 0.068,0.225 -0.007,0.086 -0.047,0.16 -0.113,0.209 -0.066,0.049 -0.155,0.07 -0.25,0.054 -0.307,-0.053 -0.604,-0.14 -0.888,-0.256 -0.181,-0.074 -0.246,-0.258 -0.169,-0.411 0.058,-0.115 0.168,-0.177 0.284,-0.174 z m 2.812,0.033 a 0.31,0.31 0 0 1 0.279,0.187 c 0.071,0.157 -0.008,0.338 -0.186,0.404 -0.288,0.105 -0.586,0.183 -0.89,0.227 -0.188,0.028 -0.344,-0.097 -0.354,-0.268 a 0.31,0.31 0 0 1 0.268,-0.332 c 0.261,-0.038 0.518,-0.104 0.767,-0.196 a 0.33,0.33 0 0 1 0.117,-0.021 z"
       fill="#ffd700"
       stroke="#bc9e00"
       class="B M R T"
       id="path458" />
  </g>
  <g
     fill="#9d272b"
     stroke="#832024"
     id="g480"
     transform="translate(-90.211,-177.939)">
    <g
       class="U"
       id="g464">
      <path
         d="m 111.474,210.589 c -0.372,0.187 -1.639,0.669 -1.274,1.017 0.365,0.348 1.003,-0.391 1.455,-0.661 0.452,-0.27 0.827,-0.4 1.157,-0.558 0.521,-0.386 0.016,-0.699 -0.288,-0.576 -0.389,0.156 -0.678,0.591 -1.051,0.779 z"
         id="path460" />
      <path
         d="m 111.898,211.381 c -0.325,0.268 -1.461,1.026 -1.032,1.282 0.429,0.256 0.898,-0.61 1.283,-0.976 0.385,-0.366 0.725,-0.579 1.014,-0.808 0.429,-0.496 -0.129,-0.686 -0.401,-0.497 -0.347,0.241 -0.539,0.731 -0.864,0.999 z"
         id="path462" />
    </g>
    <path
       d="m 112.493,211.924 c -0.208,0.297 -0.986,1.197 -0.539,1.278 0.447,0.081 0.611,-0.719 0.844,-1.109 0.233,-0.39 0.469,-0.648 0.657,-0.905 0.234,-0.502 -0.306,-0.497 -0.49,-0.276 -0.235,0.282 -0.265,0.715 -0.472,1.012 z"
       stroke-width="0.14"
       id="path466" />
    <path
       d="m 113.397,212.108 c -0.117,0.325 -0.601,1.349 -0.191,1.314 0.41,-0.035 0.378,-0.815 0.496,-1.233 0.118,-0.418 0.269,-0.714 0.377,-0.998 0.095,-0.522 -0.378,-0.384 -0.491,-0.134 -0.144,0.319 -0.074,0.726 -0.191,1.051 z"
       stroke-width="0.13"
       id="path468" />
    <g
       class="U"
       id="g474">
      <path
         d="m 116.776,210.589 c 0.373,0.187 1.639,0.669 1.274,1.017 -0.365,0.348 -1.003,-0.391 -1.455,-0.661 -0.452,-0.27 -0.827,-0.4 -1.157,-0.558 -0.521,-0.386 -0.016,-0.699 0.288,-0.576 0.389,0.156 0.678,0.591 1.051,0.779 z"
         id="path470" />
      <path
         d="m 116.352,211.381 c 0.325,0.268 1.461,1.026 1.032,1.282 -0.429,0.256 -0.898,-0.61 -1.283,-0.976 -0.385,-0.366 -0.725,-0.579 -1.014,-0.808 -0.429,-0.496 0.129,-0.686 0.401,-0.497 0.347,0.241 0.539,0.731 0.864,0.999 z"
         id="path472" />
    </g>
    <path
       d="m 115.756,211.924 c 0.208,0.297 0.986,1.197 0.539,1.278 -0.447,0.081 -0.611,-0.719 -0.844,-1.109 -0.233,-0.39 -0.469,-0.648 -0.657,-0.905 -0.234,-0.502 0.306,-0.497 0.49,-0.276 0.235,0.282 0.265,0.715 0.472,1.012 z"
       stroke-width="0.14"
       id="path476" />
    <path
       d="m 114.852,212.108 c 0.117,0.325 0.601,1.349 0.191,1.314 -0.41,-0.035 -0.378,-0.815 -0.496,-1.233 -0.118,-0.418 -0.269,-0.714 -0.377,-0.998 -0.095,-0.522 0.378,-0.384 0.491,-0.134 0.144,0.319 0.074,0.726 0.191,1.051 z"
       stroke-width="0.13"
       id="path478" />
  </g>
  <g
     id="g1642">
    <path
       d="m 23.939,23.832 c -0.776,2.469 -2.03,3.57 -2.03,4.729 0,1.304 0.805,0.913 0.805,2.744 h 2.451 c 0,-1.831 0.805,-1.44 0.805,-2.744 0,-1.158 -1.254,-2.26 -2.03,-4.729 z"
       fill="#fff000"
       id="path214" />
    <path
       d="m 23.785,31.347 c -0.119,0.125 -0.086,0.135 -0.042,0.296 -0.044,0.235 0.05,0.63 -0.162,0.675 -0.125,0.027 -0.169,0.056 -0.258,0.211 -0.089,0.155 0.269,0.466 0.51,0.189 0.151,-0.173 0.082,-0.293 0.145,-0.413 0.06,-0.291 0.014,-0.445 0.015,-0.655 a 0.33,0.33 0 0 0 0.043,-0.259 z"
       fill="#be8b4c"
       stroke="#896232"
       stroke-width="0.081"
       id="path482" />
    <path
       d="m 23.697,27.228 c 0.102,0.388 0.207,0.551 -0.053,1.262 -0.148,0.405 -0.111,0.903 -0.048,1.356 0.102,0.61 -0.695,0.813 -0.778,1.477 0.777,-0.087 1.745,0.14 2.321,0.377 h -10e-4 c -0.603,-0.383 -0.923,-0.93 -0.876,-1.453 a 1.87,1.87 0 0 0 -0.179,-1.022 c -0.146,-0.315 0.055,-0.519 0.081,-0.879 0.064,-0.875 0.016,-0.91 -0.152,-1.298 -0.189,-0.437 0.042,-0.675 0.109,-1.041 0.097,-0.522 -0.043,-0.83 -0.156,-1.212 0.006,0.52 -0.007,0.916 -0.174,1.343 -0.167,0.427 -0.221,0.613 -0.095,1.091 z"
       id="path484" />
    <path
       d="m 23.548,31.294 c -0.054,-0.312 0.283,-0.857 0.335,-1.29 0.053,-0.44 -0.084,-0.664 -0.088,-1.041 -0.003,-0.267 0.142,-0.669 0.174,-1.022 0.036,-0.404 -0.115,-0.643 -0.172,-0.964 0.101,0.303 0.236,0.545 0.235,0.954 -0.001,0.384 -0.172,0.606 -0.157,1.061 0.013,0.396 0.175,0.495 0.147,1.068 -0.019,0.376 -0.102,0.947 0.308,1.375 a 2.95,2.95 0 0 0 -0.782,-0.141 z"
       fill="#cec100"
       id="path486" />
  </g>
  <g
     id="g1604">
    <g
       class="S"
       id="g518"
       transform="translate(-90.211,-177.939)">
      <g
         class="B"
         id="g496">
        <path
           d="m 130.013,213.546 2.453,2.804 c 0.865,3.753 -4.845,8.095 -6.449,9.042 l -2.629,-4.977 c 3.572,-1.881 5.855,-4.148 6.624,-6.869 z"
           fill="url(#I)"
           class="O"
           id="path488"
           style="fill:url(#I)" />
        <path
           d="m 130.013,213.546 1.42,1.623 c -1.723,3.618 -2.791,5.43 -6.704,7.782 l -1.339,-2.536 c 3.572,-1.881 5.855,-4.148 6.624,-6.869 z"
           fill="url(#J)"
           class="Q"
           id="path490"
           style="fill:url(#J)" />
        <path
           d="m 129.976,213.674 2.49,2.677 c -1.467,-0.509 -2.11,0.824 -2.377,1.439 -1.171,-1.46 -2.428,-2.325 -3.739,-2.805 0.37,-0.573 1.801,-1.757 3.625,-1.31 z"
           fill="url(#K)"
           class="O"
           id="path492"
           style="fill:url(#K)" />
        <path
           d="m 130.013,213.546 1.42,1.623 c -1.68,-0.944 -3.02,0.955 -3.053,0.929 -0.658,-0.5 -1.336,-0.861 -2.029,-1.115 0.37,-0.573 1.838,-1.884 3.662,-1.437 z"
           fill="url(#L)"
           class="Q"
           id="path494"
           style="fill:url(#L)" />
      </g>
      <g
         class="O"
         id="g502">
        <path
           d="m 124.23,217.086 2.839,4.836 -1.052,3.47 -2.629,-4.977 z"
           fill="#c3c3c3"
           id="path498" />
        <path
           d="m 98.286,213.546 -2.453,2.804 c -0.865,3.753 4.845,8.095 6.449,9.042 l 2.629,-4.977 c -3.572,-1.881 -5.855,-4.148 -6.624,-6.869 z"
           fill="url(#F)"
           class="B"
           id="path500"
           style="fill:url(#F)" />
      </g>
      <path
         d="m 98.286,213.546 -1.42,1.623 c 1.723,3.618 2.791,5.43 6.704,7.782 l 1.339,-2.536 c -3.572,-1.881 -5.855,-4.148 -6.624,-6.869 z"
         fill="url(#E)"
         class="B Q"
         id="path504"
         style="fill:url(#E)" />
      <path
         d="m 98.324,213.674 -2.49,2.677 c 1.467,-0.509 2.11,0.824 2.377,1.439 1.171,-1.46 2.428,-2.325 3.739,-2.805 -0.37,-0.573 -1.801,-1.757 -3.625,-1.31 z"
         fill="url(#G)"
         class="B O"
         id="path506"
         style="fill:url(#G)" />
      <path
         d="m 98.286,213.546 -1.42,1.623 c 1.68,-0.944 3.02,0.955 3.053,0.929 a 7.71,7.71 0 0 1 2.029,-1.115 c -0.37,-0.573 -1.838,-1.884 -3.662,-1.437 z"
         fill="url(#H)"
         class="B Q"
         id="path508"
         style="fill:url(#H)" />
      <g
         class="O"
         id="g514">
        <path
           d="m 104.069,217.086 -2.839,4.836 1.052,3.47 2.629,-4.977 z"
           fill="#c3c3c3"
           id="path510" />
        <path
           d="m 114.15,216.252 c -3.971,0 -6.043,2.253 -10.081,0.835 l -2.839,4.836 c 4.14,4.546 7.399,1.937 12.92,1.937 5.521,0 8.78,2.608 12.92,-1.937 l -2.839,-4.836 c -4.038,1.419 -6.11,-0.835 -10.081,-0.835 z"
           fill="url(#D)"
           class="B"
           id="path512"
           style="fill:url(#D)" />
      </g>
      <path
         d="m 114.15,216.252 c -3.971,0 -6.043,2.253 -10.081,0.835 l -1.42,2.418 c 3.789,3.004 5.979,0.676 11.5,0.676 5.521,0 7.711,2.328 11.5,-0.675 l -1.42,-2.418 c -4.038,1.419 -6.11,-0.835 -10.081,-0.835 z"
         fill="url(#C)"
         stroke="#b50000"
         class="B"
         id="path516"
         style="fill:url(#C)" />
    </g>
    <path
       d="m 24.308,39.381 a 1.55,1.55 0 0 0 -0.18,0.002 c -0.264,0.016 -0.452,0.084 -0.605,0.218 -0.218,0.192 -0.309,0.425 -0.309,0.798 -10e-4,0.56 0.279,0.915 0.778,0.988 0.445,0.065 0.78,-0.028 1.012,-0.282 a 0.68,0.68 0 0 0 0.17,-0.287 c 0.099,-0.323 0.087,-0.68 -0.031,-0.939 -0.14,-0.307 -0.432,-0.479 -0.836,-0.498 z m -1.908,0.065 -0.274,0.017 -0.292,0.034 c -0.01,0.009 0.003,0.249 0.029,0.532 l 0.041,0.52 c -0.003,0.003 -0.179,-0.209 -0.392,-0.471 l -0.417,-0.5 a 2.4,2.4 0 0 0 -0.579,0.034 52.74,52.74 0 0 0 0.159,1.921 c 0.012,0.056 0.018,0.057 0.189,0.042 l 0.288,-0.028 h 10e-4 l 0.111,-0.013 -0.043,-0.483 -0.044,-0.528 c -0.001,-0.025 0.179,0.177 0.398,0.449 l 0.399,0.494 0.282,-0.014 c 0.155,-0.008 0.291,-0.023 0.301,-0.033 0.016,-0.015 -0.092,-1.404 -0.143,-1.84 z m 4.484,0.14 c -0.246,0 -0.283,0.006 -0.423,0.07 -0.347,0.16 -0.545,0.519 -0.546,0.989 a 0.88,0.88 0 0 0 0.712,0.921 v 0 a 2.09,2.09 0 0 0 0.775,0.011 c 0.068,-0.018 0.191,-0.063 0.272,-0.099 l 0.148,-0.066 0.051,-0.41 0.046,-0.415 C 27.916,40.584 27.708,40.556 27.457,40.525 L 27,40.467 l -0.016,0.136 -0.028,0.201 c -0.013,0.064 -0.011,0.065 0.179,0.082 l 0.205,0.026 c 0.007,0.005 0.009,0.048 0.003,0.097 -0.013,0.11 -0.098,0.16 -0.303,0.178 -0.361,0.033 -0.564,-0.191 -0.527,-0.583 0.038,-0.403 0.184,-0.595 0.455,-0.595 0.16,0 0.289,0.065 0.344,0.174 l 0.045,0.087 0.242,-0.006 0.285,-0.019 c 0.063,-0.018 0.053,-0.084 -0.037,-0.257 -0.148,-0.285 -0.43,-0.402 -0.964,-0.403 z m -2.666,0.238 c 0.038,0.001 0.079,0.007 0.121,0.018 0.221,0.059 0.312,0.247 0.295,0.608 -0.011,0.241 -0.072,0.387 -0.189,0.453 A 0.46,0.46 0 0 1 23.98,40.881 c -0.101,-0.076 -0.156,-0.209 -0.17,-0.42 -0.027,-0.397 0.138,-0.643 0.408,-0.638 z m -5.191,0.097 c -0.372,-0.017 -0.666,0.073 -0.88,0.269 a 0.78,0.78 0 0 0 -0.279,0.611 c -0.026,0.549 0.225,0.988 0.642,1.118 0.258,0.081 0.737,0.012 0.994,-0.143 0.251,-0.151 0.376,-0.371 0.392,-0.688 0.025,-0.503 -0.153,-0.893 -0.49,-1.074 a 0.67,0.67 0 0 0 -0.379,-0.093 z m 9.846,10e-4 c -0.019,0.023 -0.403,1.896 -0.391,1.908 a 1.78,1.78 0 0 0 0.252,0.067 c 0.331,0.074 0.315,0.077 0.344,-0.058 l 0.202,-0.948 0.148,-0.849 c -0.033,-0.02 -0.544,-0.13 -0.553,-0.119 z m 3.429,0.186 c -0.152,0.016 -0.447,0.074 -0.475,0.101 a 38.83,38.83 0 0 0 0.384,1.888 c 0.007,0.019 0.034,0.026 0.067,0.018 l 0.273,-0.06 0.231,-0.061 a 34.46,34.46 0 0 0 -0.391,-1.885 c -0.004,-0.007 -0.039,-0.006 -0.089,-0.001 z m -17.206,0.041 a 34.28,34.28 0 0 0 0.287,1.959 c 0.009,0.01 0.143,0.025 0.299,0.034 l 0.284,0.017 0.038,-0.108 0.361,-1.013 c 0.015,-0.039 0.032,-0.065 0.038,-0.059 a 37.46,37.46 0 0 1 0.257,1.234 0.75,0.75 0 0 0 0.178,0.02 v 0.001 l 0.299,0.007 0.12,-0.002 0.281,-0.953 0.272,-0.96 a 3.07,3.07 0 0 0 -0.281,-0.024 l -0.272,-0.017 -0.104,0.4 -0.188,0.651 c -0.006,-0.006 -0.06,-0.252 -0.121,-0.547 l -0.116,-0.542 a 4.93,4.93 0 0 0 -0.286,-0.013 l -0.281,-0.009 -0.185,0.522 c -0.121,0.343 -0.19,0.507 -0.2,0.479 a 7.95,7.95 0 0 1 -0.073,-0.55 L 15.646,40.17 15.378,40.152 c -0.147,-0.01 -0.274,-0.011 -0.282,-0.003 z m 14.777,0.05 c -0.016,0.013 -0.106,1.934 -0.092,1.948 a 1.57,1.57 0 0 0 0.294,0.029 l 0.279,0.012 0.014,-0.086 a 1.84,1.84 0 0 0 0.014,-0.233 l 0.016,-0.313 c 0.013,-0.141 0.023,-0.165 0.063,-0.165 0.131,0 0.185,0.065 0.373,0.453 l 0.183,0.379 0.131,0.009 v -10e-4 l 0.334,0.013 0.203,0.005 -0.034,-0.08 c -0.226,-0.525 -0.32,-0.684 -0.45,-0.761 l -0.084,-0.05 0.13,-0.044 c 0.283,-0.096 0.423,-0.383 0.338,-0.691 -0.049,-0.177 -0.183,-0.289 -0.406,-0.339 -0.1,-0.023 -1.287,-0.101 -1.305,-0.086 z m -10.962,0.182 a 0.35,0.35 0 0 1 0.134,0.043 c 0.165,0.096 0.237,0.265 0.258,0.598 0.012,0.191 0.008,0.216 -0.044,0.294 a 0.5,0.5 0 0 1 -0.132,0.127 v 0.001 c -0.155,0.09 -0.355,0.076 -0.472,-0.033 -0.195,-0.182 -0.269,-0.683 -0.13,-0.877 0.08,-0.112 0.242,-0.169 0.386,-0.152 z m 11.545,0.241 c 0.007,-0.006 0.103,-0.003 0.213,0.007 0.255,0.023 0.327,0.065 0.327,0.193 0,0.122 -0.041,0.174 -0.16,0.202 l -10e-4,-10e-4 c -0.099,0.023 -0.212,0.025 -0.339,0.006 l -0.07,-0.01 0.009,-0.193 c 0.005,-0.106 0.014,-0.198 0.021,-0.204 z m -17.454,2.495 c -0.073,-0.006 -0.141,0.026 -0.2,0.096 -0.084,0.1 -0.071,0.209 0.049,0.406 0.104,0.171 0.111,0.24 0.031,0.277 -0.13,0.059 -0.313,-0.125 -0.26,-0.264 0.023,-0.059 0.018,-0.074 -0.043,-0.122 -0.061,-0.048 -0.072,-0.049 -0.089,-0.018 a 0.36,0.36 0 0 0 -0.038,0.264 c 0.026,0.095 0.235,0.299 0.323,0.317 a 0.29,0.29 0 0 0 0.328,-0.171 c 0.043,-0.103 0.022,-0.185 -0.092,-0.365 -0.041,-0.065 -0.077,-0.146 -0.079,-0.181 -0.003,-0.052 0.008,-0.065 0.064,-0.071 0.1,-0.012 0.224,0.117 0.204,0.211 -0.019,0.085 0.083,0.202 0.127,0.147 0.086,-0.107 0.053,-0.259 -0.086,-0.393 -0.084,-0.082 -0.164,-0.126 -0.237,-0.132 z m 0.753,0.581 c -0.017,0 -0.209,0.123 -0.427,0.274 l -0.396,0.274 0.07,0.056 c 0.064,0.051 0.075,0.053 0.12,0.02 0.132,-0.097 0.146,-0.096 0.305,0.011 0.153,0.104 0.159,0.117 0.128,0.259 -0.014,0.063 -0.006,0.082 0.058,0.127 0.091,0.064 0.075,0.104 0.198,-0.479 l 0.095,-0.45 -0.06,-0.047 c -0.033,-0.025 -0.074,-0.046 -0.091,-0.047 z m -0.061,0.232 c 0.005,0.005 -0.004,0.074 -0.021,0.152 -0.045,0.208 -0.046,0.209 -0.164,0.127 -0.057,-0.04 -0.104,-0.077 -0.104,-0.082 0,-0.016 0.279,-0.208 0.289,-0.198 z m 0.452,0.043 -0.165,0.409 -0.176,0.437 c -0.007,0.017 0.091,0.068 0.242,0.128 0.139,0.055 0.292,0.099 0.34,0.1 a 0.25,0.25 0 0 0 0.207,-0.377 c -0.036,-0.054 -0.035,-0.059 0.011,-0.074 a 0.26,0.26 0 0 0 0.149,-0.212 c 0,-0.113 -0.11,-0.205 -0.372,-0.313 z m 0.12,0.216 c 0.041,0 0.232,0.083 0.273,0.118 0.059,0.05 0.054,0.117 -0.012,0.163 -0.066,0.046 -0.051,0.05 -0.257,-0.038 l -0.103,-0.044 0.039,-0.1 c 0.022,-0.055 0.048,-0.1 0.059,-0.1 z m 0.67,0.129 a 10.83,10.83 0 0 0 -0.231,0.854 c 0,0.026 0.058,0.054 0.19,0.091 0.338,0.095 0.502,0.05 0.616,-0.171 0.122,-0.237 0.089,-0.532 -0.07,-0.628 -0.084,-0.051 -0.484,-0.166 -0.505,-0.145 z m 0.169,0.184 a 0.53,0.53 0 0 1 0.085,0.02 c 0.129,0.038 0.226,0.132 0.226,0.217 0,0.103 -0.077,0.315 -0.136,0.374 -0.032,0.032 -0.084,0.057 -0.115,0.056 -0.053,-0.002 -0.244,-0.046 -0.26,-0.059 a 7.01,7.01 0 0 1 0.158,-0.606 c 0.003,-0.005 0.019,-0.005 0.041,-0.002 z m -0.98,0.031 c 0.032,0 0.255,0.107 0.291,0.141 0.059,0.054 0.054,0.143 -0.011,0.189 a 0.23,0.23 0 0 1 -0.068,0.037 2.09,2.09 0 0 1 -0.302,-0.12 0.52,0.52 0 0 1 0.09,-0.246 z m 1.887,0.019 -0.248,0.439 -0.248,0.438 0.091,0.012 c 0.087,0.012 0.094,0.008 0.148,-0.093 0.04,-0.076 0.068,-0.103 0.098,-0.094 a 1.68,1.68 0 0 0 0.185,0.029 c 0.151,0.018 0.166,0.032 0.199,0.187 0.011,0.052 0.031,0.068 0.094,0.076 h 0.001 l 0.094,0.014 a 12.04,12.04 0 0 0 -0.232,-0.97 c -0.006,-0.006 -0.049,-0.016 -0.096,-0.024 z m 0.062,0.237 a 2.28,2.28 0 0 1 0.079,0.327 c 0.001,0.03 -0.061,0.034 -0.203,0.013 l -0.068,-0.01 0.091,-0.169 c 0.05,-0.093 0.096,-0.165 0.101,-0.16 z"
       id="path520" />
    <path
       d="m 34.543,43.22 -0.062,0.059 c -0.034,0.032 -0.062,0.072 -0.062,0.088 a 14.41,14.41 0 0 0 0.334,0.899 c 0.01,0.016 0.04,0.002 0.078,-0.036 0.064,-0.064 0.063,-0.073 -0.005,-0.241 -0.011,-0.028 0.026,-0.076 0.131,-0.167 l 0.147,-0.128 0.102,0.052 0.102,0.052 0.059,-0.055 c 0.032,-0.03 0.059,-0.062 0.059,-0.07 0,-0.008 -0.198,-0.113 -0.441,-0.234 z m 0.083,0.237 c 0.006,-0.006 0.082,0.03 0.17,0.08 l 0.16,0.089 -0.094,0.085 c -0.052,0.047 -0.099,0.085 -0.105,0.085 -0.016,0 -0.144,-0.327 -0.132,-0.338 z m -0.459,0.118 -0.071,0.041 c -0.043,0.025 -0.065,0.056 -0.057,0.077 a 5.41,5.41 0 0 0 0.185,0.309 c 0.094,0.151 0.171,0.289 0.171,0.307 0,0.048 -0.075,0.123 -0.123,0.123 -0.023,0 -0.061,-0.022 -0.085,-0.048 -0.043,-0.047 -0.044,-0.047 -0.114,0.005 l -0.071,0.052 0.055,0.06 c 0.03,0.033 0.077,0.068 0.104,0.08 V 44.58 c 0.071,0.029 0.102,0.028 0.191,-0.01 0.129,-0.055 0.202,-0.151 0.202,-0.269 0,-0.085 -0.033,-0.156 -0.194,-0.415 z m -0.796,0.477 c -0.017,0.002 -0.033,0.013 -0.057,0.026 l -0.08,0.041 0.016,0.369 0.016,0.501 v 0.131 l 0.08,-0.033 c 0.073,-0.03 0.08,-0.042 0.087,-0.157 l 0.007,-0.124 0.175,-0.077 0.175,-0.077 0.076,0.074 c 0.084,0.081 0.12,0.089 0.203,0.042 0.053,-0.029 0.044,-0.042 -0.258,-0.338 -0.325,-0.319 -0.389,-0.387 -0.441,-0.379 z m 0.035,0.235 a 1.2,1.2 0 0 1 0.253,0.248 c 0,0.01 -0.051,0.041 -0.114,0.069 l -0.12,0.05 c -0.011,0 -0.03,-0.355 -0.02,-0.367 z m -0.589,0.04 a 1.07,1.07 0 0 0 -0.284,0.044 l -0.29,0.081 c -0.022,0.014 -0.001,0.126 0.081,0.435 l 0.12,0.445 c 0.007,0.022 0.031,0.022 0.094,0.003 l 0.084,-0.026 -0.05,-0.183 c -0.042,-0.154 -0.044,-0.187 -0.016,-0.205 0.089,-0.056 0.171,-0.016 0.395,0.195 0.09,0.085 0.092,0.086 0.196,0.054 l 0.105,-0.031 -0.146,-0.133 c -0.08,-0.073 -0.171,-0.139 -0.203,-0.147 -0.07,-0.018 -0.073,-0.049 -0.007,-0.07 0.12,-0.038 0.155,-0.276 0.056,-0.386 -0.042,-0.046 -0.077,-0.071 -0.137,-0.075 z m -0.053,0.158 c 0.026,0.005 0.058,0.039 0.071,0.076 0.031,0.088 -0.026,0.152 -0.168,0.188 l -0.144,0.041 c -0.029,0.011 -0.045,-0.01 -0.066,-0.088 -0.015,-0.056 -0.022,-0.117 -0.016,-0.135 0.014,-0.036 0.25,-0.096 0.323,-0.082 z m -0.901,0.05 a 2.29,2.29 0 0 0 -0.225,0.025 l -0.193,0.029 0.014,0.12 0.068,0.462 c 0.031,0.198 0.065,0.341 0.081,0.341 a 0.53,0.53 0 0 0 0.084,-0.016 c 0.054,-0.015 0.057,-0.023 0.041,-0.15 -0.009,-0.074 -0.022,-0.15 -0.029,-0.168 -0.014,-0.037 -0.006,-0.04 0.199,-0.082 0.247,-0.051 0.334,-0.191 0.257,-0.412 -0.04,-0.114 -0.112,-0.157 -0.297,-0.149 z m -0.014,0.149 c 0.081,0.004 0.136,0.036 0.153,0.093 0.023,0.074 -0.043,0.162 -0.136,0.181 -0.155,0.031 -0.188,0.021 -0.204,-0.061 -0.034,-0.17 -0.025,-0.189 0.097,-0.207 0.033,-0.005 0.063,-0.007 0.09,-0.005 z"
       stroke="#000000"
       stroke-width="0.025"
       id="path522" />
    <path
       d="m 23.467,43.753 a 0.48,0.48 0 0 0 -0.276,0.111 c -0.21,0.186 -0.165,0.646 0.076,0.785 0.133,0.077 0.368,0.074 0.541,-0.006 l 0.129,-0.06 v -0.184 c 0,-0.101 -0.008,-0.187 -0.019,-0.192 -0.011,-0.005 -0.104,-0.004 -0.208,10e-4 l -0.191,0.009 v 0.075 c 0,0.075 0.001,0.075 0.111,0.06 l 0.111,-0.015 v 0.081 c 0,0.098 -0.068,0.138 -0.236,0.138 -0.135,0 -0.214,-0.068 -0.255,-0.218 -0.058,-0.216 0.049,-0.411 0.238,-0.437 0.092,-0.012 0.111,-0.005 0.181,0.065 0.07,0.07 0.088,0.076 0.16,0.058 l 0.081,-0.02 -0.038,-0.079 c -0.061,-0.126 -0.235,-0.187 -0.404,-0.172 z m 0.666,0.018 v 0.467 0.466 h 0.086 0.086 v -0.198 -0.198 l 0.092,0.008 c 0.084,0.007 0.103,0.024 0.223,0.198 0.126,0.183 0.134,0.19 0.227,0.19 0.053,0 0.097,-0.006 0.097,-0.013 a 1.48,1.48 0 0 0 -0.251,-0.358 c -0.046,-0.025 -0.042,-0.03 0.05,-0.071 0.115,-0.052 0.152,-0.108 0.152,-0.233 0,-0.205 -0.101,-0.258 -0.49,-0.258 z m -1.468,0.024 0.013,0.351 0.013,0.351 -0.071,0.056 c -0.054,0.043 -0.091,0.053 -0.155,0.042 -0.148,-0.024 -0.159,-0.054 -0.174,-0.433 L 22.266,43.81 c -0.006,-0.005 -0.047,-0.005 -0.091,0.002 l -0.08,0.012 0.013,0.273 c 0.024,0.487 0.045,0.554 0.192,0.618 v -0.001 c 0.163,0.071 0.394,0.029 0.494,-0.089 0.061,-0.072 0.063,-0.086 0.063,-0.414 l -0.015,-0.379 c -0.009,-0.024 -0.045,-0.039 -0.096,-0.039 z m 2.732,0.025 -0.184,0.41 -0.202,0.454 c -0.015,0.039 -0.005,0.045 0.077,0.045 0.088,0 0.098,-0.007 0.134,-0.098 l 0.039,-0.098 h 0.196 0.195 l 0.031,0.101 c 0.018,0.06 0.05,0.109 0.081,0.121 a 0.36,0.36 0 0 0 0.104,0.022 c 0.051,0.002 0.046,-0.02 -0.106,-0.477 l -0.16,-0.479 H 25.5 Z m -3.607,0.031 c -0.009,0 -0.021,0.003 -0.035,0.006 a 0.3,0.3 0 0 0 -0.074,0.026 c -0.005,0.005 0.002,0.14 0.016,0.299 l 0.018,0.298 C 21.71,44.485 21.609,44.356 21.49,44.193 21.274,43.897 21.274,43.897 21.188,43.911 l -0.089,0.017 a 40.38,40.38 0 0 0 0.085,0.92 h 10e-4 a 0.39,0.39 0 0 0 0.146,-0.033 c 0.004,-0.004 -0.004,-0.132 -0.018,-0.285 -0.023,-0.245 -0.021,-0.324 0.006,-0.29 a 37.44,37.44 0 0 1 0.212,0.288 c 0.196,0.267 0.207,0.278 0.278,0.264 a 0.28,0.28 0 0 0 0.087,-0.027 8.53,8.53 0 0 0 -0.062,-0.842 c -0.01,-0.055 -0.016,-0.073 -0.043,-0.072 z m 4.364,0.027 a 10.77,10.77 0 0 0 -0.101,0.911 0.51,0.51 0 0 0 0.084,0.021 c 0.073,0.014 0.078,0.01 0.092,-0.077 0.009,-0.05 0.015,-0.129 0.016,-0.177 10e-4,-0.139 0.021,-0.153 0.199,-0.135 0.226,0.023 0.213,0.008 0.189,0.21 a 0.88,0.88 0 0 0 -0.009,0.211 c 0.013,0.034 0.161,0.047 0.162,0.014 a 25.57,25.57 0 0 1 0.049,-0.448 l 0.049,-0.448 c 0,-0.01 -0.037,-0.019 -0.082,-0.019 -0.09,0 -0.113,0.036 -0.114,0.184 a 0.71,0.71 0 0 1 -0.014,0.125 c -0.014,0.053 -0.01,0.053 -0.278,0.02 l -0.108,-0.013 0.013,-0.181 0.014,-0.18 -0.073,-0.016 c -0.04,-0.009 -0.08,-0.01 -0.087,-0.003 z m -1.848,0.04 h 0.168 c 0.132,0 0.177,0.01 0.209,0.045 0.051,0.056 0.051,0.113 0.002,0.162 -0.028,0.028 -0.086,0.038 -0.208,0.038 h -0.17 v -0.122 z m 1.18,0.123 c 0.008,0 0.034,0.064 0.058,0.141 l 0.056,0.172 c 0.009,0.023 -0.027,0.031 -0.129,0.031 -0.102,0 -0.137,-0.009 -0.128,-0.031 l 0.142,-0.313 z m 1.976,0.006 c -0.066,0.006 -0.094,0.044 -0.314,0.421 l -0.233,0.423 c 0.005,0.005 0.044,0.016 0.086,0.024 0.068,0.014 0.082,0.006 0.127,-0.067 l 0.058,-0.104 c 0.004,-0.012 0.094,-0.007 0.203,0.012 l 0.195,0.034 0.021,0.115 c 0.019,0.105 0.028,0.116 0.098,0.125 l 0.096,0.013 c 0.024,0.005 0.032,0.053 -0.091,-0.486 -0.06,-0.261 -0.123,-0.484 -0.141,-0.496 -0.018,-0.012 -0.065,-0.018 -0.104,-0.014 z m 0.636,0.099 a 16.8,16.8 0 0 0 -0.07,0.396 l -0.081,0.46 c -0.013,0.065 -0.009,0.069 0.071,0.069 h 0.085 l 0.043,-0.263 0.056,-0.297 c 0.007,-0.019 0.075,0.119 0.15,0.306 0.128,0.315 0.143,0.341 0.211,0.355 v -10e-4 l 0.087,0.019 a 10.36,10.36 0 0 0 0.166,-0.919 c -0.004,-0.004 -0.04,-0.011 -0.08,-0.015 l -0.072,-0.008 -0.05,0.287 -0.063,0.299 c -0.007,0.007 -0.073,-0.14 -0.147,-0.327 -0.132,-0.335 -0.135,-0.34 -0.219,-0.353 -0.047,-0.007 -0.087,-0.011 -0.089,-0.008 z m -0.637,0.116 a 0.67,0.67 0 0 1 0.036,0.129 l 0.041,0.184 c 0.011,0.043 0.004,0.055 -0.031,0.052 -0.167,-0.015 -0.23,-0.025 -0.23,-0.037 0,-0.018 0.174,-0.328 0.184,-0.328 z m 1.591,0.069 -0.087,0.45 c -0.062,0.324 -0.079,0.455 -0.059,0.469 0.02,0.014 0.055,0.015 0.088,0.012 0.059,-0.006 0.064,-0.022 0.144,-0.443 l 0.072,-0.448 c -0.006,-0.006 -0.044,-0.018 -0.085,-0.026 z m 0.367,0.076 -0.089,0.449 -0.09,0.467 c 0,0.01 0.037,0.019 0.082,0.019 0.081,0 0.082,-10e-4 0.112,-0.166 0.057,-0.312 0.081,-0.403 0.1,-0.382 a 3.47,3.47 0 0 1 0.135,0.332 c 0.093,0.251 0.126,0.314 0.168,0.322 h 0.001 c 0.13,0.026 0.123,0.04 0.214,-0.437 0.091,-0.477 0.091,-0.48 -0.026,-0.48 -0.048,0 -0.069,0.068 -0.127,0.418 -0.016,0.094 -0.035,0.172 -0.043,0.172 -0.008,0 -0.07,-0.147 -0.135,-0.326 l -0.134,-0.341 c -0.008,-0.009 -0.049,-0.023 -0.091,-0.031 z m 1.205,0.174 c -0.279,0 -0.451,0.182 -0.451,0.475 a 0.71,0.71 0 0 0 0.034,0.219 0.49,0.49 0 0 0 0.251,0.239 0.83,0.83 0 0 0 0.464,-0.038 l 0.098,-0.048 0.007,-0.19 0.007,-0.19 h -0.121 c -0.066,0 -0.155,-0.008 -0.197,-0.016 -0.073,-0.014 -0.076,-0.011 -0.076,0.061 0,0.072 0.007,0.077 0.071,0.077 0.109,0 0.149,0.024 0.149,0.089 0,0.045 -0.021,0.069 -0.085,0.096 -0.11,0.046 -0.194,0.045 -0.286,-0.003 -0.13,-0.067 -0.183,-0.288 -0.11,-0.463 0.046,-0.111 0.127,-0.162 0.255,-0.162 0.088,0 0.119,0.014 0.176,0.077 0.057,0.063 0.081,0.074 0.146,0.059 0.09,-0.02 0.091,-0.025 0.027,-0.131 -0.064,-0.106 -0.18,-0.152 -0.359,-0.152 z M 20.42,44.017 c -0.041,0 -0.076,0.016 -0.085,0.039 a 7.42,7.42 0 0 0 0.103,0.863 h 0.001 c 0.006,0.017 0.049,0.03 0.099,0.03 0.08,0 0.088,-0.006 0.076,-0.055 -0.007,-0.03 -0.038,-0.24 -0.069,-0.466 l -0.056,-0.411 z m -0.279,0.051 a 5.53,5.53 0 0 0 -0.703,0.119 c -0.01,0.008 -0.011,0.041 -0.003,0.072 0.014,0.054 0.023,0.056 0.153,0.041 l 0.139,-0.016 0.044,0.266 0.069,0.384 c 0.024,0.116 0.027,0.119 0.1,0.104 a 0.37,0.37 0 0 0 0.083,-0.023 c 0.004,-0.004 -0.02,-0.162 -0.053,-0.35 l -0.061,-0.383 c 0,-0.031 0.033,-0.046 0.129,-0.061 0.118,-0.019 0.128,-0.026 0.12,-0.082 -0.005,-0.034 -0.013,-0.065 -0.018,-0.071 z m -0.815,0.138 -0.105,0.017 c -0.058,0.009 -0.112,0.022 -0.122,0.028 a 2.49,2.49 0 0 0 -0.16,0.246 c -0.136,0.225 -0.181,0.257 -0.182,0.129 A 1.37,1.37 0 0 0 18.73,44.46 c -0.024,-0.114 -0.032,-0.124 -0.097,-0.124 -0.039,0 -0.077,0.011 -0.085,0.024 -0.012,0.019 0.087,0.589 0.148,0.856 0.011,0.051 0.023,0.056 0.09,0.043 a 0.33,0.33 0 0 0 0.085,-0.024 c 0.005,-0.005 -0.004,-0.066 -0.019,-0.136 -0.026,-0.121 -0.024,-0.133 0.04,-0.229 l 0.067,-0.102 0.061,0.072 c 0.268,0.313 0.267,0.312 0.388,0.294 l 0.112,-0.017 -0.234,-0.252 -0.233,-0.252 0.136,-0.204 z m -1.333,0.278 c -0.023,-0.002 -0.05,0.004 -0.085,0.012 -0.045,0.01 -0.059,0.061 -0.132,0.472 l -0.095,0.496 c -0.01,0.026 10e-4,0.031 0.046,0.019 a 0.48,0.48 0 0 1 0.099,-0.016 c 0.029,0 0.044,-0.032 0.056,-0.118 l 0.016,-0.118 0.193,-0.037 0.193,-0.037 0.058,0.096 c 0.053,0.087 0.065,0.094 0.141,0.082 0.046,-0.007 0.087,-0.017 0.093,-0.023 0.006,-0.006 -0.11,-0.197 -0.257,-0.425 -0.207,-0.32 -0.255,-0.396 -0.326,-0.402 z m -0.799,0.083 c -0.143,-0.006 -0.29,0.051 -0.342,0.176 -0.074,0.177 0.033,0.302 0.314,0.366 a 0.9,0.9 0 0 1 0.209,0.066 c 0.044,0.037 0.039,0.104 -0.012,0.149 -0.107,0.096 -0.293,0.071 -0.347,-0.047 -0.024,-0.054 -0.038,-0.06 -0.107,-0.045 a 0.42,0.42 0 0 0 -0.087,0.024 c -0.004,0.004 0.014,0.051 0.042,0.104 0.034,0.067 0.079,0.11 0.143,0.137 0.184,0.079 0.461,0.011 0.535,-0.131 0.113,-0.218 -0.017,-0.383 -0.339,-0.431 -0.207,-0.031 -0.279,-0.15 -0.126,-0.208 0.1,-0.038 0.156,-0.029 0.222,0.037 0.042,0.042 0.088,0.061 0.148,0.061 0.079,0 0.085,-0.005 0.07,-0.055 -0.039,-0.129 -0.179,-0.199 -0.322,-0.205 z m 0.799,0.137 c 0.009,0 0.057,0.069 0.107,0.153 0.064,0.108 0.081,0.158 0.061,0.169 a 0.62,0.62 0 0 1 -0.136,0.034 c -0.097,0.016 -0.106,0.013 -0.094,-0.028 0.007,-0.025 0.021,-0.109 0.03,-0.187 0.009,-0.078 0.023,-0.141 0.033,-0.141 z"
       id="path524" />
  </g>
</svg>
